<?xml version="1.0" encoding="utf-8"?>

<!-- Uploaded to: SVG Repo, www.svgrepo.com, Generator: SVG Repo Mixer Tools -->
<svg xmlns="http://www.w3.org/2000/svg" width="24" height="24" viewBox="0 0 24 24" fill="none">
<g clip-path="url(#clip0_2619_30140)">
<path d="M7.70105 10.3965C7.70105 10.6377 7.72712 10.8332 7.77275 10.9766C7.8249 11.12 7.89008 11.2765 7.98134 11.446C8.01393 11.4981 8.02697 11.5502 8.02697 11.5959C8.02697 11.6611 7.98786 11.7262 7.90312 11.7914L7.49246 12.0652C7.4338 12.1043 7.37513 12.1239 7.32299 12.1239C7.2578 12.1239 7.19262 12.0913 7.12744 12.0326C7.03618 11.9348 6.95796 11.8305 6.89278 11.7262C6.82759 11.6154 6.76241 11.4916 6.69071 11.3417C6.18227 11.9414 5.54348 12.2412 4.77431 12.2412C4.22677 12.2412 3.79004 12.0848 3.47064 11.7719C3.15124 11.459 2.98828 11.0418 2.98828 10.5203C2.98828 9.96629 3.18383 9.51652 3.58145 9.17757C3.97907 8.83861 4.50706 8.66914 5.17845 8.66914C5.40007 8.66914 5.62821 8.68869 5.86939 8.72128C6.11057 8.75387 6.35827 8.80602 6.619 8.86469V8.38885C6.619 7.89345 6.51471 7.54798 6.31264 7.34591C6.10405 7.14384 5.75206 7.04607 5.25015 7.04607C5.02201 7.04607 4.78735 7.07214 4.54617 7.1308C4.30499 7.18947 4.07033 7.26117 3.84219 7.35243C3.73789 7.39806 3.65967 7.42413 3.61404 7.43717C3.56841 7.4502 3.53582 7.45672 3.50975 7.45672C3.41849 7.45672 3.37286 7.39154 3.37286 7.25465V6.93525C3.37286 6.83096 3.3859 6.75274 3.41849 6.70711C3.45108 6.66148 3.50975 6.61585 3.60101 6.57023C3.82915 6.4529 4.10292 6.35512 4.42232 6.2769C4.74172 6.19216 5.08067 6.15305 5.43918 6.15305C6.21487 6.15305 6.78196 6.32905 7.14699 6.68104C7.5055 7.03303 7.68801 7.56753 7.68801 8.28455V10.3965H7.70105ZM5.0546 11.3873C5.2697 11.3873 5.49133 11.3482 5.72599 11.27C5.96065 11.1917 6.16924 11.0483 6.34523 10.8528C6.44953 10.7289 6.52775 10.5921 6.56686 10.4356C6.60597 10.2792 6.63204 10.0901 6.63204 9.86851V9.59474C6.44301 9.54911 6.24094 9.51 6.03235 9.48393C5.82376 9.45786 5.6217 9.44482 5.41963 9.44482C4.9829 9.44482 4.6635 9.52956 4.44839 9.70555C4.23329 9.88155 4.12899 10.1292 4.12899 10.4552C4.12899 10.7615 4.20721 10.9897 4.37017 11.1461C4.52661 11.3091 4.75475 11.3873 5.0546 11.3873ZM10.2888 12.0913C10.1715 12.0913 10.0933 12.0717 10.0411 12.0261C9.98899 11.987 9.94336 11.8957 9.90425 11.7719L8.37244 6.73318C8.33333 6.60282 8.31378 6.51808 8.31378 6.47245C8.31378 6.36816 8.36592 6.30949 8.47022 6.30949H9.10902C9.23286 6.30949 9.3176 6.32905 9.36323 6.37468C9.41538 6.41379 9.45449 6.50504 9.4936 6.62889L10.5887 10.944L11.6055 6.62889C11.6381 6.49852 11.6772 6.41379 11.7294 6.37468C11.7815 6.33557 11.8728 6.30949 11.9901 6.30949H12.5116C12.6354 6.30949 12.7202 6.32905 12.7723 6.37468C12.8245 6.41379 12.8701 6.50504 12.8962 6.62889L13.9261 10.9962L15.0538 6.62889C15.0929 6.49852 15.1385 6.41379 15.1841 6.37468C15.2363 6.33557 15.321 6.30949 15.4383 6.30949H16.0445C16.1488 6.30949 16.2075 6.36164 16.2075 6.47245C16.2075 6.50504 16.201 6.53763 16.1945 6.57674C16.1879 6.61585 16.1749 6.668 16.1488 6.7397L14.5779 11.7784C14.5388 11.9088 14.4932 11.9935 14.441 12.0326C14.3889 12.0717 14.3041 12.0978 14.1933 12.0978H13.6328C13.5089 12.0978 13.4242 12.0782 13.372 12.0326C13.3199 11.987 13.2742 11.9022 13.2482 11.7719L12.2378 7.56753L11.234 11.7654C11.2014 11.8957 11.1623 11.9805 11.1101 12.0261C11.058 12.0717 10.9667 12.0913 10.8494 12.0913H10.2888ZM18.6649 12.2673C18.326 12.2673 17.987 12.2282 17.6611 12.1499C17.3352 12.0717 17.081 11.987 16.9115 11.8892C16.8072 11.8305 16.7355 11.7654 16.7094 11.7067C16.6833 11.648 16.6703 11.5828 16.6703 11.5242V11.1917C16.6703 11.0549 16.7225 10.9897 16.8202 10.9897C16.8593 10.9897 16.8984 10.9962 16.9376 11.0092C16.9767 11.0223 17.0353 11.0483 17.1005 11.0744C17.3221 11.1722 17.5633 11.2504 17.8175 11.3026C18.0783 11.3547 18.3325 11.3808 18.5932 11.3808C19.0039 11.3808 19.3233 11.3091 19.5449 11.1657C19.7665 11.0223 19.8839 10.8137 19.8839 10.5464C19.8839 10.3639 19.8252 10.214 19.7079 10.0901C19.5905 9.96629 19.3689 9.85548 19.0495 9.75118L18.1043 9.45786C17.6285 9.30793 17.2765 9.08631 17.0614 8.79298C16.8463 8.50618 16.7355 8.18678 16.7355 7.84782C16.7355 7.57405 16.7942 7.33287 16.9115 7.12429C17.0288 6.9157 17.1853 6.73318 17.3808 6.58978C17.5764 6.43986 17.798 6.32905 18.0587 6.25083C18.3194 6.17261 18.5932 6.14001 18.88 6.14001C19.0234 6.14001 19.1734 6.14653 19.3168 6.16609C19.4667 6.18564 19.6036 6.21172 19.7404 6.23779C19.8708 6.27038 19.9947 6.30297 20.112 6.34208C20.2293 6.38119 20.3206 6.4203 20.3858 6.45941C20.477 6.51156 20.5422 6.56371 20.5813 6.62237C20.6204 6.67452 20.64 6.74622 20.64 6.83748V7.14384C20.64 7.28073 20.5878 7.35243 20.4901 7.35243C20.4379 7.35243 20.3532 7.32636 20.2424 7.27421C19.8708 7.10473 19.4536 7.01999 18.9908 7.01999C18.6193 7.01999 18.326 7.07866 18.1239 7.20251C17.9218 7.32636 17.8175 7.51539 17.8175 7.78264C17.8175 7.96515 17.8827 8.12159 18.0131 8.24544C18.1435 8.36929 18.3846 8.49314 18.7301 8.60395L19.6557 8.89728C20.125 9.0472 20.464 9.25579 20.6661 9.52304C20.8681 9.79029 20.9659 10.0967 20.9659 10.4356C20.9659 10.7159 20.9072 10.9701 20.7964 11.1917C20.6791 11.4134 20.5227 11.6089 20.3206 11.7654C20.1185 11.9283 19.8773 12.0456 19.597 12.1304C19.3037 12.2216 18.9974 12.2673 18.6649 12.2673Z" fill="white"/>
<path fill-rule="evenodd" clip-rule="evenodd" d="M19.897 15.4352C17.7524 17.0191 14.6366 17.86 11.9576 17.86C8.20302 17.86 4.82 16.4716 2.2648 14.1641C2.06274 13.9816 2.24525 13.7339 2.48643 13.8773C5.25021 15.4808 8.65931 16.4521 12.1857 16.4521C14.5649 16.4521 17.1788 15.9567 19.5841 14.9398C19.9426 14.7768 20.2489 15.1745 19.897 15.4352Z" fill="#FF9900"/>
<path fill-rule="evenodd" clip-rule="evenodd" d="M20.7899 14.4183C20.5162 14.0663 18.9778 14.2489 18.2804 14.3336C18.0718 14.3597 18.0392 14.1772 18.2282 14.0403C19.4537 13.1798 21.4679 13.4275 21.7025 13.7144C21.9372 14.0077 21.6373 16.0218 20.4901 16.9866C20.3141 17.1365 20.1446 17.0583 20.2229 16.8627C20.4836 16.2174 21.0637 14.7638 20.7899 14.4183Z" fill="#FF9900"/>
</g>
<defs>
<clipPath id="clip0_2619_30140">
<rect width="20" height="11.72" fill="white" transform="translate(2 6.14001)"/>
</clipPath>
</defs>
</svg>