<svg width="24" height="24" viewBox="0 0 24 24" fill="none" xmlns="http://www.w3.org/2000/svg">
<path fill-rule="evenodd" clip-rule="evenodd" d="M9.35337 2.52637C7.66626 2.52637 6.11656 3.4423 5.28201 4.91395L2.6245 9.60007C1.79526 11.0623 1.79163 12.8602 2.61489 14.3258L5.27919 19.0691C6.11113 20.5503 7.66605 21.4737 9.36015 21.4737H14.5955C16.2775 21.4737 17.8234 20.5633 18.6598 19.0986L21.3684 14.3554C22.214 12.8747 22.2103 11.0478 21.3586 9.57063L18.6568 4.88442C17.8178 3.4293 16.2773 2.52637 14.6023 2.52637H9.35337ZM7.1133 5.95247C7.58004 5.12945 8.43643 4.63163 9.35337 4.63163H14.6023C15.5127 4.63163 16.3639 5.12239 16.8329 5.93596L19.5348 10.6222C20.0127 11.4512 20.0149 12.4803 19.5403 13.3114L16.8316 18.0546C16.3639 18.8736 15.5097 19.3685 14.5955 19.3685H9.36015C8.43944 19.3685 7.58004 18.8666 7.11471 18.0381L4.45041 13.2948C3.98829 12.4721 3.99036 11.4593 4.45579 10.6386L7.1133 5.95247ZM13.8836 7.58687C13.5017 7.14859 12.8368 7.10291 12.3985 7.48486C11.9602 7.86678 11.9145 8.53172 12.2964 8.97001L14.9369 12.0001L12.2964 15.0301C11.9145 15.4684 11.9602 16.1333 12.3985 16.5152C12.8368 16.8972 13.5017 16.8515 13.8836 16.4132L16.8254 13.0374C17.3435 12.4429 17.3435 11.5572 16.8254 10.9627L13.8836 7.58687Z" fill="url(#paint0_linear_13131_251239)"/>
<defs>
<linearGradient id="paint0_linear_13131_251239" x1="-4.90407" y1="0.927786" x2="23.9097" y2="26.3869" gradientUnits="userSpaceOnUse">
<stop offset="0.250068" stop-color="#39ACE6"/>
<stop offset="1" stop-color="#FF0000"/>
</linearGradient>
</defs>
</svg>
